REM DIRINDEX 1\2\6,1\2\7,1\2\8,1\2\9,1\3\10,1\3\11,1\4\12,1\4\13,1\4\14,1\5\15,1\5\16,1\5\17
REM DIRNAME folder01,folder02,folder03,folder04,folder05,folder06,folder07,folder08,folder09,folder10,folder11,folder12,folder13,folder14,folder15,folder16,folder17
TITLE ""
FILE "1900_2_sec07_0601_0614.mp3" MP3
  TRACK 01 AUDIO
    TITLE "0:"
    INDEX 01 00:00:00
  TRACK 02 AUDIO
    TITLE "12:cjc020_3311"
    INDEX 01 00:03:23
  TRACK 03 AUDIO
    TITLE "0:"
    INDEX 01 00:04:64
  TRACK 04 AUDIO
    TITLE "12:cjc020_3312"
    INDEX 01 00:05:34
  TRACK 05 AUDIO
    TITLE "0:"
    INDEX 01 00:06:55
  TRACK 06 AUDIO
    TITLE "13:cjc020_3313"
    INDEX 01 00:07:56
  TRACK 07 AUDIO
    TITLE "0:"
    INDEX 01 00:08:68
  TRACK 08 AUDIO
    TITLE "14:cjc020_3314"
    INDEX 01 00:08:70
  TRACK 09 AUDIO
    TITLE "0:"
    INDEX 01 00:10:23
  TRACK 10 AUDIO
    TITLE "13:cjc020_3315"
    INDEX 01 00:10:74
  TRACK 11 AUDIO
    TITLE "0:"
    INDEX 01 00:12:11
  TRACK 12 AUDIO
    TITLE "14:cjc020_3316"
    INDEX 01 00:12:18
  TRACK 13 AUDIO
    TITLE "0:"
    INDEX 01 00:15:07
  TRACK 14 AUDIO
    TITLE "13:cjc020_3317"
    INDEX 01 00:15:62
  TRACK 15 AUDIO
    TITLE "0:"
    INDEX 01 00:16:67
  TRACK 16 AUDIO
    TITLE "14:cjc020_3318"
    INDEX 01 00:16:71
  TRACK 17 AUDIO
    TITLE "0:"
    INDEX 01 00:18:05
  TRACK 18 AUDIO
    TITLE "13:cjc020_3319"
    INDEX 01 00:18:62
  TRACK 19 AUDIO
    TITLE "0:"
    INDEX 01 00:19:71
  TRACK 20 AUDIO
    TITLE "14:cjc020_3320"
    INDEX 01 00:19:73
  TRACK 21 AUDIO
    TITLE "0:"
    INDEX 01 00:22:46
  TRACK 22 AUDIO
    TITLE "13:cjc020_3321"
    INDEX 01 00:23:26
  TRACK 23 AUDIO
    TITLE "0:"
    INDEX 01 00:24:37
  TRACK 24 AUDIO
    TITLE "14:cjc020_3322"
    INDEX 01 00:24:39
  TRACK 25 AUDIO
    TITLE "0:"
    INDEX 01 00:27:22
  TRACK 26 AUDIO
    TITLE "13:cjc020_3323"
    INDEX 01 00:28:04
  TRACK 27 AUDIO
    TITLE "0:"
    INDEX 01 00:29:13
  TRACK 28 AUDIO
    TITLE "14:cjc020_3324"
    INDEX 01 00:29:17
  TRACK 29 AUDIO
    TITLE "0:"
    INDEX 01 00:32:70
  TRACK 30 AUDIO
    TITLE "13:cjc020_3325"
    INDEX 01 00:33:50
  TRACK 31 AUDIO
    TITLE "0:"
    INDEX 01 00:34:65
  TRACK 32 AUDIO
    TITLE "14:cjc020_3326"
    INDEX 01 00:34:67
  TRACK 33 AUDIO
    TITLE "0:"
    INDEX 01 00:38:31
  TRACK 34 AUDIO
    TITLE "13:cjc020_3327"
    INDEX 01 00:39:09
  TRACK 35 AUDIO
    TITLE "0:"
    INDEX 01 00:40:26
  TRACK 36 AUDIO
    TITLE "14:cjc020_3328"
    INDEX 01 00:40:28
  TRACK 37 AUDIO
    TITLE "0:"
    INDEX 01 00:42:43
  TRACK 38 AUDIO
    TITLE "13:cjc020_3329"
    INDEX 01 00:43:23
  TRACK 39 AUDIO
    TITLE "0:"
    INDEX 01 00:44:26
  TRACK 40 AUDIO
    TITLE "14:cjc020_3330"
    INDEX 01 00:44:28
  TRACK 41 AUDIO
    TITLE "0:"
    INDEX 01 00:46:49
  TRACK 42 AUDIO
    TITLE "13:cjc020_3331"
    INDEX 01 00:47:28
  TRACK 43 AUDIO
    TITLE "0:"
    INDEX 01 00:48:32
  TRACK 44 AUDIO
    TITLE "14:cjc020_3332"
    INDEX 01 00:48:36
  TRACK 45 AUDIO
    TITLE "0:"
    INDEX 01 00:51:22
  TRACK 46 AUDIO
    TITLE "13:cjc020_3333"
    INDEX 01 00:52:02
  TRACK 47 AUDIO
    TITLE "0:"
    INDEX 01 00:52:73
  TRACK 48 AUDIO
    TITLE "14:cjc020_3334"
    INDEX 01 00:53:02
  TRACK 49 AUDIO
    TITLE "0:"
    INDEX 01 00:55:55
  TRACK 50 AUDIO
    TITLE "13:cjc020_3335"
    INDEX 01 00:56:35
  TRACK 51 AUDIO
    TITLE "0:"
    INDEX 01 00:57:50
  TRACK 52 AUDIO
    TITLE "14:cjc020_3336"
    INDEX 01 00:57:54
  TRACK 53 AUDIO
    TITLE "0:"
    INDEX 01 01:00:47
  TRACK 54 AUDIO
    TITLE "13:cjc020_3337"
    INDEX 01 01:01:29
  TRACK 55 AUDIO
    TITLE "0:"
    INDEX 01 01:02:32
  TRACK 56 AUDIO
    TITLE "14:cjc020_3338"
    INDEX 01 01:02:34
  TRACK 57 AUDIO
    TITLE "0:"
    INDEX 01 01:06:32
  TRACK 58 AUDIO
    TITLE "13:cjc020_3339"
    INDEX 01 01:07:14
  TRACK 59 AUDIO
    TITLE "0:"
    INDEX 01 01:08:29
  TRACK 60 AUDIO
    TITLE "14:cjc020_3340"
    INDEX 01 01:08:33
  TRACK 61 AUDIO
    TITLE "0:"
    INDEX 01 01:09:56
